<?xml version="1.0" encoding="utf-8"?>
<!-- Generator: Adobe Illustrator 21.1.0, SVG Export Plug-In . SVG Version: 6.00 Build 0)  -->
<svg version="1.1" id="Layer_1" xmlns="http://www.w3.org/2000/svg" xmlns:xlink="http://www.w3.org/1999/xlink" x="0px" y="0px"
	 viewBox="0 0 1004.3 434.9" style="enable-background:new 0 0 1004.3 434.9;" xml:space="preserve">
<style type="text/css">
	.st0{fill:#39AEA9;}
	.st1{fill:#4D4D4D;}
	.st2{fill:#FF7BAC;}
	.st3{fill:#4D4D4D;stroke:#4D4D4D;stroke-width:10;stroke-miterlimit:10;}
	.st4{fill:#FFFFFF;}
	.st5{fill:#39AEA9;stroke:#39AEA9;stroke-width:10;stroke-miterlimit:10;}
	.st6{fill:#4D4D4D;stroke:#4D4D4D;stroke-width:14;stroke-miterlimit:10;}
</style>
<title>KilecyLogo</title>
<g>
	<path class="st0" d="M525.9,339.9c-9.6,0-17,2.9-22.1,8.7c-5.2,5.8-7.6,14-7.6,24.6c0,10.7,2.9,19,8.5,24.8
		c5.7,5.8,13.3,8.7,22.9,8.7c5.2,0,9.4-0.7,13-2c3.6-1.4,6.9-2.9,10.2-4.7c2.1,1.7,3.8,3.8,5,6.2c1.2,2.4,1.8,5.2,1.8,8.4
		c0,5.1-2.9,9.3-8.5,12.8c-5.7,3.5-14.3,5.3-25.9,5.3c-8.3,0-16.2-1.2-23.6-3.5c-7.3-2.4-13.8-6-19.3-10.8c-5.5-4.9-9.8-11-13-18.5
		c-3.2-7.4-4.8-16.4-4.8-26.7c0-9.6,1.5-18.1,4.6-25.4c3.1-7.3,7.2-13.5,12.5-18.6s11.5-8.8,18.7-11.5c7.1-2.6,14.7-3.9,22.8-3.9
		c11.5,0,20.3,1.9,26.7,5.6c6.3,3.7,9.4,8.4,9.4,14.2c0,3.2-0.8,6-2.5,8.3c-1.6,2.4-3.5,4.2-5.7,5.6c-3.3-2.1-6.7-3.9-10.4-5.4
		C535.2,340.7,530.8,339.9,525.9,339.9z"/>
	<path class="st0" d="M635.5,428.7c-1.4,0.4-3.5,0.7-6.4,1.1c-2.9,0.4-5.7,0.6-8.4,0.6c-5.8,0-10-1-12.9-2.9
		c-2.9-1.9-4.3-6-4.3-12.1v-25c-3.1-4.6-6.5-9.6-10.1-15.2c-3.6-5.6-7.1-11.2-10.6-17c-3.5-5.8-6.7-11.5-9.7-17.1
		c-3-5.7-5.5-10.7-7.3-15.5c1.6-2.2,3.9-4.3,6.6-6.1c2.8-1.9,6.3-2.8,10.4-2.8c4.9,0,8.8,1,11.9,3s6,5.7,8.7,11.1l15.5,30.9h1.1
		c1.8-3.8,3.3-7.3,4.6-10.4c1.3-3.2,2.6-6.3,3.9-9.4c1.3-3.2,2.6-6.5,4-9.8c1.4-3.4,3-7.3,4.7-11.7c2.3-1.1,4.8-2,7.4-2.6
		c2.8-0.6,5.4-0.9,7.8-0.9c4.4,0,8,1.1,11.1,3.4c3.1,2.3,4.6,5.7,4.6,10.2c0,1.5-0.3,3.3-0.9,5.4c-0.6,2.1-2.1,5.3-4.3,9.5
		c-2.3,4.3-5.6,10-9.8,17.3c-4.3,7.2-10.1,16.8-17.5,28.5L635.5,428.7L635.5,428.7L635.5,428.7z"/>
	<path class="st0" d="M727.3,432.4c-2.1,0-4.7-0.1-7.4-0.2c-2.9-0.1-5.9-0.4-8.9-0.7c-3.1-0.4-6.1-0.8-9-1.4c-3-0.6-5.8-1.3-8.2-2.3
		c-6.8-2.6-10.3-7-10.3-13.5V328c0-2.6,0.7-4.6,2.2-6.1c1.4-1.4,3.4-2.6,5.9-3.4c4.3-1.5,9.5-2.6,15.9-3.3c6.4-0.7,12.9-1,19.6-1
		c16,0,28.3,2.7,36.8,7.9c8.6,5.3,12.9,13.5,12.9,24.6c0,5.6-1.6,10.3-4.9,14.3c-3.3,4-7.6,6.9-13.1,8.8c6.3,1.7,11.4,4.9,15.6,9.4
		c4.2,4.6,6.3,10.3,6.3,17.2c0,12.2-4.6,21.2-13.8,27.1S744.6,432.4,727.3,432.4z M715.2,361.3h13.7c5.4,0,9.2-1,11.7-3
		c2.5-2,3.7-4.9,3.7-8.7c0-3.4-1.4-6-4.2-7.9c-2.8-2-7-3-12.6-3c-1.9,0-4.1,0.1-6.5,0.2c-2.5,0.1-4.4,0.3-5.8,0.6L715.2,361.3
		L715.2,361.3z M715.2,406.3c1.8,0.5,4,0.8,6.7,1c2.8,0.2,5.4,0.3,7.8,0.3c5,0,9.1-1,12.4-3.1c3.3-2,5-5.2,5-9.5
		c0-4.1-1.4-6.9-4.1-8.7c-2.8-1.7-6.9-2.6-12.5-2.6h-15.4V406.3L715.2,406.3z"/>
	<path class="st0" d="M799.1,334.6c0-5.3,1.6-9.5,4.7-12.6s7.3-4.7,12.7-4.7h61.7c0.9,1.4,1.7,3.2,2.4,5.4c0.7,2.2,1,4.6,1,7
		c0,4.7-1,8-3.1,10s-4.8,3-8.1,3h-39.5v17.2H873c0.9,1.4,1.7,3.1,2.4,5.3c0.7,2.2,1,4.5,1,6.9c0,4.7-1,8-3,10c-2,2-4.7,3-8,3h-34.4
		v19.4H879c0.9,1.4,1.7,3.2,2.4,5.4c0.7,2.2,1,4.6,1,7c0,4.7-1,8-3.1,10.1c-2.1,2-4.8,3.1-8.1,3.1h-54.7c-5.4,0-9.6-1.6-12.7-4.7
		c-3.1-3.1-4.7-7.2-4.7-12.6L799.1,334.6L799.1,334.6z"/>
	<path class="st0" d="M934.3,393.2v35.5c-1.4,0.4-3.6,0.7-6.5,1.1c-3,0.4-5.9,0.6-8.7,0.6c-2.9,0-5.4-0.2-7.5-0.7
		c-2.2-0.4-4-1.2-5.5-2.3c-1.4-1.1-2.5-2.7-3.3-4.7c-0.8-2-1.1-4.6-1.1-7.7v-87.1c0-2.6,0.7-4.6,2.2-6.1c1.4-1.4,3.4-2.6,5.9-3.4
		c4.3-1.5,9.1-2.6,14.8-3.3c5.7-0.7,11.6-1,18-1c17.2,0,30.2,3.6,38.9,10.7c8.7,7.1,13.1,16.9,13.1,29.1c0,7.6-2,14.2-6,19.5
		c-4,5.5-8.7,9.6-14.2,12.6c4.5,6.1,8.9,11.7,13.3,17c4.4,5.3,7.8,10.1,10.3,14.4c-1.3,4.3-3.6,7.6-6.8,9.9c-3.3,2.3-7,3.4-11.1,3.4
		c-2.8,0-5.2-0.3-7.1-0.9c-2-0.6-3.8-1.5-5.3-2.6c-1.5-1.1-2.9-2.5-4.1-4.1c-1.3-1.6-2.5-3.4-3.6-5.2l-15.7-25L934.3,393.2
		L934.3,393.2z M946.1,368.6c4.8,0,8.4-1.2,11.2-3.6c2.8-2.4,4.1-6,4.1-10.6c0-4.7-1.5-8.2-4.6-10.6c-3.1-2.4-7.9-3.6-14.5-3.6
		c-1.9,0-3.4,0.1-4.5,0.2s-2.4,0.3-3.8,0.6v27.7L946.1,368.6L946.1,368.6z"/>
</g>
<g>
	<path class="st1" d="M484.3,294c-5.3,0-9.5-1.6-12.6-4.7c-3.1-3.1-4.7-7.2-4.7-12.6v-95.6c1.4-0.2,3.5-0.6,6.5-1s5.8-0.7,8.5-0.7
		c2.9,0,5.4,0.2,7.4,0.7c2.2,0.4,4,1.2,5.5,2.3c1.5,1.1,2.6,2.7,3.4,4.7c0.7,2,1.1,4.6,1.1,7.7v73h42.4c0.9,1.4,1.7,3.2,2.4,5.5
		s1.1,4.7,1.1,7.1c0,5-1.1,8.4-3.2,10.4c-2.1,2-4.9,3.1-8.3,3.1L484.3,294L484.3,294z"/>
	<path class="st1" d="M561.9,198.6c0-5.3,1.6-9.5,4.7-12.6c3.1-3.1,7.2-4.7,12.6-4.7h61c0.9,1.4,1.6,3.2,2.3,5.4c0.7,2.2,1,4.6,1,7
		c0,4.7-1,8-3.1,10c-2,2-4.8,3-8,3h-39v17.2h41.6c0.9,1.4,1.6,3.1,2.3,5.3c0.7,2.2,1,4.5,1,6.9c0,4.7-1,8-3,10c-2,2-4.7,3-7.9,3h-34
		v19.4h47.5c0.9,1.4,1.6,3.2,2.3,5.4c0.7,2.2,1,4.6,1,7c0,4.7-1,8-3.1,10.1c-2,2-4.8,3.1-8,3.1h-53.8c-5.3,0-9.5-1.6-12.6-4.7
		c-3.1-3.1-4.7-7.2-4.7-12.6V198.6z"/>
	<path class="st1" d="M689.5,184.7c2.1-1.2,5.3-2.4,9.5-3.5s8.5-1.7,12.9-1.7c6.2,0,11.6,0.9,16.4,2.7c4.8,1.8,7.8,4.6,9.1,8.4
		c2.2,6.5,4.7,13.9,7.2,22.3c2.6,8.5,5.2,17.3,7.7,26.4c2.6,9,5.2,18,7.5,26.8c2.5,8.8,4.7,16.6,6.5,23.4c-1.5,1.7-3.7,3.1-6.6,4.2
		c-3,1.1-6.5,1.6-10.5,1.6c-3,0-5.5-0.3-7.4-0.7c-2-0.5-3.7-1.2-5-2.2c-1.3-1-2.4-2.3-3.2-3.9c-0.8-1.6-1.5-3.5-2.1-5.6l-3.4-12.8
		h-33.4c-1,3.7-2,7.5-3,11.5c-1,4-2,7.7-3,11.5c-1.7,0.6-3.6,1.1-5.5,1.6c-1.9,0.4-4.3,0.7-6.9,0.7c-6.3,0-10.9-1.1-14-3.3
		c-3-2.2-4.6-5.2-4.6-8.9c0-1.7,0.2-3.5,0.7-5.2c0.5-1.7,1.1-3.8,1.7-6.2c0.9-3.4,2.1-7.4,3.6-12.4c1.6-5,3.3-10.2,5.1-16
		c1.9-5.8,3.8-11.6,6-17.7c2.1-6.1,4.1-11.7,6-17.1c1.9-5.4,3.6-10.1,5.1-14.3C687.4,190.2,688.6,186.9,689.5,184.7z M711.7,208.5
		c-1.7,5.2-3.7,10.9-5.9,17.3s-4.1,12.8-5.9,19.4h22.9c-1.7-6.6-3.5-13.2-5.3-19.5c-1.8-6.4-3.4-12-4.9-17.1L711.7,208.5
		L711.7,208.5z"/>
	<path class="st1" d="M813.7,257.2v35.5c-1.4,0.4-3.5,0.7-6.4,1.1c-2.9,0.4-5.8,0.6-8.6,0.6c-2.9,0-5.4-0.2-7.4-0.7
		c-2.2-0.4-4-1.2-5.4-2.3c-1.4-1.1-2.5-2.7-3.3-4.7c-0.7-2-1.1-4.6-1.1-7.7v-87.1c0-2.6,0.7-4.6,2.1-6.1c1.4-1.4,3.4-2.6,5.9-3.4
		c4.2-1.5,9-2.6,14.6-3.3c5.6-0.7,11.5-1,17.8-1c17,0,29.9,3.6,38.5,10.7c8.6,7.1,12.9,16.9,12.9,29.1c0,7.6-2,14.2-6,19.5
		c-4,5.5-8.6,9.6-14.1,12.6c4.5,6.1,8.8,11.7,13.1,17c4.3,5.3,7.7,10.1,10.2,14.4c-1.2,4.3-3.5,7.6-6.7,9.9c-3.3,2.3-6.9,3.4-11,3.4
		c-2.7,0-5.1-0.3-7-0.9c-2-0.6-3.7-1.5-5.2-2.6c-1.5-1.1-2.9-2.5-4.1-4.1c-1.2-1.6-2.4-3.4-3.5-5.2l-15.6-25L813.7,257.2
		L813.7,257.2z M825.4,232.5c4.7,0,8.3-1.2,11.1-3.6c2.7-2.4,4.1-6,4.1-10.6s-1.5-8.2-4.6-10.6c-3-2.4-7.8-3.6-14.3-3.6
		c-1.9,0-3.4,0.1-4.5,0.2c-1.1,0.1-2.4,0.3-3.7,0.6v27.6H825.4z"/>
	<path class="st1" d="M995.7,289.5c-1.7,1.7-4.3,3.1-7.4,4c-3.3,0.9-7.1,1.4-11.7,1.4s-8.8-0.7-12.9-2c-4.1-1.4-7.4-4.7-10-9.8
		l-18.3-37.3c-1.9-3.8-3.5-7.4-5-10.8c-1.5-3.4-3.1-7.3-4.8-11.7l-1.1,0.2c0.5,6.6,0.8,13.4,0.8,20.3c0.1,6.9,0.1,13.7,0.1,20.3
		v28.7c-1.4,0.4-3.4,0.7-6.2,1.1c-2.8,0.4-5.6,0.6-8.2,0.6c-2.7,0-5.2-0.2-7.2-0.6c-2.1-0.4-3.9-1.1-5.2-2.2
		c-1.4-1.1-2.4-2.6-3.2-4.6c-0.7-1.9-1.1-4.4-1.1-7.4v-92.5c1.7-2.5,4.4-4.3,7.9-5.6c3.6-1.2,7.4-1.9,11.5-1.9c4.6,0,8.9,0.7,13,2.1
		c4.2,1.4,7.4,4.7,9.9,9.7l18.5,37.3c1.9,3.9,3.5,7.4,5,10.8c1.5,3.4,3.1,7.3,4.8,11.7l0.9-0.2c-0.5-6.6-0.8-13.3-0.9-19.9
		s-0.2-13.3-0.2-19.9v-30c1.4-0.4,3.4-0.7,6.2-1.1c2.8-0.4,5.6-0.6,8.2-0.6c5.5,0,9.5,1,12.4,2.9c2.9,1.9,4.3,5.9,4.3,11.9
		L995.7,289.5L995.7,289.5z"/>
</g>
<g>
	<path class="st2" d="M601.3,159.5h-47.9l-31-59.6l-12.5,7.4v52.2h-42.6V3.6h42.6v67.8c2.2-4.2,6.5-10.8,13-19.9l32.9-47.8h46.3
		l-49.4,69.9L601.3,159.5z"/>
	<path class="st2" d="M631.3,159.5V3.6h42.6v155.9L631.3,159.5L631.3,159.5z"/>
	<path class="st2" d="M854.1,78.2c0,26-7.2,46-21.6,60.1c-14.4,14.1-34.6,21.1-60.7,21.1H721V3.6h54.3c25.2,0,44.6,6.4,58.2,19.2
		C847.3,35.6,854.1,54.1,854.1,78.2z M810.2,79.7c0-14.3-2.9-24.9-8.5-31.8c-5.7-6.8-14.3-10.3-25.9-10.3h-12.3V125h9.4
		c12.9,0,22.3-3.7,28.3-11.1C807.1,106.4,810.2,95,810.2,79.7z"/>
	<path class="st2" d="M997.9,112.2c0,9.6-2.5,18.3-7.4,25.8c-5,7.5-12,13.3-21.3,17.5c-9.3,4.2-20.2,6.3-32.7,6.3
		c-10.4,0-19.2-0.7-26.3-2.2c-7-1.5-14.5-4-22.1-7.6v-37.5c8,4.2,16.5,7.3,25.2,9.6c8.7,2.3,16.8,3.5,24,3.5
		c6.3,0,10.9-1.1,13.8-3.3c3-2.2,4.4-5,4.4-8.3c0-2.2-0.6-4-1.8-5.6s-3.1-3.2-5.7-4.9c-2.6-1.6-9.5-5-20.8-10
		c-10.2-4.7-17.9-9.1-23-13.4c-5.2-4.4-8.9-9.3-11.4-14.9c-2.5-5.7-3.7-12.3-3.7-19.9c0-14.4,5.3-25.6,15.8-33.6
		c10.7-8.1,25.1-12.2,43.6-12.2c16.3,0,32.7,3.8,49.6,11.2l-13,32.5c-14.7-6.6-27.3-10-38-10c-5.5,0-9.5,1-12,2.9s-3.8,4.3-3.8,7.1
		c0,3.1,1.6,5.8,4.8,8.2c3.2,2.4,11.8,6.8,25.9,13.2C975.3,72.6,984.7,79,990,86C995.3,92.9,997.9,101.7,997.9,112.2z"/>
</g>
<path class="st3" d="M361.3,117.8c-21.2,7.7-28.4,41.1-15.9,74.5c12.5,33.4,39.8,54.4,61,46.6c21.2-7.7,28.4-41.1,15.9-74.5
	C409.8,131,382.5,110.1,361.3,117.8z"/>
<ellipse transform="matrix(0.9855 -0.1697 0.1697 0.9855 -36.9058 40.9542)" class="st4" cx="221.1" cy="236.4" rx="184.4" ry="184.4"/>
<g>
	<path class="st1" d="M50,265.1c-11.2-82,37.2-170.5,117.6-196.5c68-21.9,146.9,2.4,192.5,56.7c47.2,56.3,52.1,139.2,14.5,201.7
		c-37.7,62.6-112.8,96.3-184.8,82.2C117.5,395,61,338,50,265.1c-2.1-13.2-22-7.5-20,5.5c13.9,91.4,95,159.1,186.7,162.2
		c82,3,158.4-46.8,189.4-122.6c31-75.5,10.6-166.2-51.2-220c-60-52.2-152.3-67.1-223.3-28.6C57.3,102,18.7,188.3,29.9,270.6
		C31.7,283.7,51.7,278.1,50,265.1z"/>
</g>
<path class="st0" d="M323,229.8c20.7-3.6,34.2-25.7,30.2-49.5c-4.1-23.8-24.3-40.2-45.1-36.6c-20.7,3.6-34.2,25.7-30.2,49.5
	C282,216.9,302.2,233.3,323,229.8z"/>
<ellipse transform="matrix(0.9855 -0.1697 0.1697 0.9855 -33.2428 36.2091)" class="st0" cx="195.2" cy="212.6" rx="48.7" ry="48.7"/>
<g>
	<path class="st5" d="M217.6,311.8c-5.3-5.7,4.5-12.9,9.8-7.1c-1.6-1.6-0.7-0.5,0.1,0.1c0.9,0.7,1.8,1.5,2.7,2.2
		c2.8,2.1,5.9,3.8,9.1,5.2c12,5.1,25.6,4.8,37.9,1c13.3-4.1,27.8-10.8,36.5-22.1c2-2.6,3.5-5.3,4.6-8.3c0.6-1.7,0,0.1,0.2-0.7
		c0.1-0.4,0.1-0.7,0.2-1.1c0-0.3,0.1-0.7,0.1-1c0.5-7.8,12.5-6,12,1.8c-0.3,5-3.1,10-5.8,14.1c-6.3,9.3-15.8,16.1-25.6,21.1
		c-13,6.8-27.8,11.3-42.6,10.9C242.8,327.4,227.4,322.4,217.6,311.8L217.6,311.8z"/>
</g>
<path class="st6" d="M33.8,225.6c-21.2,7.7-28.4,41.1-15.9,74.5s39.8,54.4,61,46.6s28.4-41.1,15.9-74.5S55,217.9,33.8,225.6z"/>
<path class="st4" d="M37.6,244.4c-13.9,5.2-18.4,28.3-9.9,51.6c8.4,23.3,26.6,37.9,40.5,32.7c13.9-5.2,18.4-28.3,9.9-51.6
	C69.6,253.9,51.5,239.2,37.6,244.4z"/>
<g>
	<g>
		<path class="st1" d="M130.7,63c4.7,6.5,12.9,9.6,20.3,5.3c6.5-3.8,10-13.8,5.4-20.3C148.6,37,143,24.8,130.3,18.6
			C115,11.2,96.1,11,82.9,22.7c-6.1,5.4-5.5,15.6,0,21c6,6,15,5.4,21,0c-2,1.7,2-1-0.4,0c0,0,3.8-1.1,2.3-0.8c-1.6,0.3,2.1,0,2.5,0
			c3.9,0-1.8-0.7,1.9,0.3c2,0.6,4.1,1.2,6.1,1.6c2.6,0.5-1.9-1.3-0.5-0.3c0.7,0.6,1.6,0.9,2.4,1.4c1.3,0.8,3.2,3.2,1,0.5
			c0.6,0.7,1.4,1.4,2,2.1c1.5,1.6-1.8-2.9,0.5,0.6c0.7,1,1.4,1.9,2,2.9C126.1,55.6,128.3,59.4,130.7,63L130.7,63z"/>
	</g>
</g>
<ellipse transform="matrix(0.8036 -0.5951 0.5951 0.8036 1.025 58.6354)" class="st1" cx="89.4" cy="27.8" rx="24.3" ry="24.3"/>
</svg>
